G04 #@! TF.FileFunction,Soldermask,Top*
%FSLAX46Y46*%
G04 Gerber Fmt 4.6, Leading zero omitted, Abs format (unit mm)*
G04 Created by KiCad (PCBNEW 4.0.5) date 04/19/17 16:41:43*
%MOMM*%
%LPD*%
G01*
G04 APERTURE LIST*
%ADD10C,0.100000*%
%ADD11C,3.400000*%
%ADD12C,3.448000*%
%ADD13C,2.000000*%
%ADD14R,1.700000X1.400000*%
%ADD15R,2.400000X2.400000*%
%ADD16C,2.400000*%
%ADD17R,2.220000X1.550000*%
%ADD18R,2.520000X1.070000*%
%ADD19R,1.550000X2.220000*%
%ADD20R,2.700000X3.350000*%
%ADD21R,1.920000X1.920000*%
%ADD22R,2.420000X1.040000*%
%ADD23R,2.150000X1.900000*%
%ADD24R,2.320000X1.660000*%
%ADD25R,1.660000X2.320000*%
G04 APERTURE END LIST*
D10*
D11*
X165481000Y-125857000D03*
X140081000Y-125857000D03*
D12*
X151130000Y-54864000D03*
D13*
X130750000Y-123400000D03*
X130750000Y-128400000D03*
X134050000Y-125900000D03*
D14*
X174400000Y-117550000D03*
X166000000Y-117550000D03*
X174400000Y-113050000D03*
X166000000Y-113050000D03*
X174400000Y-115300000D03*
D15*
X170900000Y-132400000D03*
D16*
X178500000Y-132400000D03*
D17*
X162900000Y-114190000D03*
X162900000Y-117210000D03*
D18*
X145952000Y-100457000D03*
X145952000Y-101727000D03*
X145952000Y-102997000D03*
X145952000Y-104267000D03*
X145952000Y-105537000D03*
X145952000Y-106807000D03*
X145952000Y-108077000D03*
X145952000Y-109347000D03*
X155292000Y-109347000D03*
X155292000Y-108077000D03*
X155292000Y-106807000D03*
X155292000Y-105537000D03*
X155292000Y-104267000D03*
X155292000Y-102997000D03*
X155292000Y-101727000D03*
X155292000Y-100457000D03*
D17*
X160528000Y-88660000D03*
X160528000Y-91680000D03*
X157480000Y-88660000D03*
X157480000Y-91680000D03*
X152400000Y-97014000D03*
X152400000Y-93994000D03*
X149352000Y-97014000D03*
X149352000Y-93994000D03*
D19*
X162320000Y-77470000D03*
X165340000Y-77470000D03*
X176290000Y-107950000D03*
X179310000Y-107950000D03*
X185180000Y-137160000D03*
X188200000Y-137160000D03*
X166130000Y-143510000D03*
X169150000Y-143510000D03*
X137400000Y-143510000D03*
X134380000Y-143510000D03*
X117080000Y-137160000D03*
X114060000Y-137160000D03*
X125970000Y-107950000D03*
X122950000Y-107950000D03*
X139940000Y-77470000D03*
X136920000Y-77470000D03*
D20*
X148480000Y-144780000D03*
X153780000Y-144780000D03*
D21*
X154178000Y-83058000D03*
X154178000Y-80518000D03*
X151638000Y-83058000D03*
X151638000Y-80518000D03*
X149098000Y-83058000D03*
X149098000Y-80518000D03*
D22*
X144920000Y-87495000D03*
X144920000Y-88765000D03*
X144920000Y-90035000D03*
X144920000Y-91305000D03*
X152280000Y-91305000D03*
X152280000Y-90035000D03*
X152280000Y-88765000D03*
X152280000Y-87495000D03*
D23*
X168305000Y-77470000D03*
X172055000Y-77470000D03*
X182275000Y-107950000D03*
X186025000Y-107950000D03*
X191165000Y-137160000D03*
X194915000Y-137160000D03*
X172115000Y-143510000D03*
X175865000Y-143510000D03*
X131415000Y-143510000D03*
X127665000Y-143510000D03*
X111095000Y-137160000D03*
X107345000Y-137160000D03*
X119985000Y-107950000D03*
X116235000Y-107950000D03*
X133955000Y-77470000D03*
X130205000Y-77470000D03*
D24*
X145288000Y-93979000D03*
X145288000Y-97029000D03*
D25*
X157174200Y-97510600D03*
X160224200Y-97510600D03*
M02*
