G04 #@! TF.FileFunction,Copper,L2,Bot,Signal*
%FSLAX46Y46*%
G04 Gerber Fmt 4.6, Leading zero omitted, Abs format (unit mm)*
G04 Created by KiCad (PCBNEW 4.0.5) date 04/19/17 16:41:43*
%MOMM*%
%LPD*%
G01*
G04 APERTURE LIST*
%ADD10C,0.100000*%
%ADD11C,3.000000*%
%ADD12R,8.000000X8.000000*%
%ADD13C,1.600000*%
%ADD14R,2.000000X2.000000*%
%ADD15C,2.000000*%
%ADD16R,1.520000X1.520000*%
%ADD17C,0.685800*%
%ADD18C,0.508000*%
%ADD19C,0.254000*%
G04 APERTURE END LIST*
D10*
D11*
X165481000Y-125857000D03*
X140081000Y-125857000D03*
D12*
X152781000Y-125857000D03*
D13*
X130750000Y-123400000D03*
X130750000Y-128400000D03*
X134050000Y-125900000D03*
D14*
X170900000Y-132400000D03*
D15*
X178500000Y-132400000D03*
D16*
X154178000Y-83058000D03*
X154178000Y-80518000D03*
X151638000Y-83058000D03*
X151638000Y-80518000D03*
X149098000Y-83058000D03*
X149098000Y-80518000D03*
D17*
X142748000Y-93218000D03*
X132842000Y-74930000D03*
X153797000Y-141097000D03*
X156200000Y-86100000D03*
X159004000Y-103632000D03*
X159004000Y-78486000D03*
X141900000Y-96000000D03*
X161500000Y-110200000D03*
D18*
X142748000Y-74930000D02*
X142748000Y-93218000D01*
X142748000Y-74930000D02*
X142748000Y-75184000D01*
X142748000Y-75184000D02*
X142748000Y-74930000D01*
X132842000Y-74930000D02*
X142748000Y-74930000D01*
X142748000Y-74930000D02*
X152400000Y-74930000D01*
X154178000Y-76708000D02*
X154178000Y-80518000D01*
X152400000Y-74930000D02*
X154178000Y-76708000D01*
D19*
X132842000Y-74930000D02*
X142240000Y-74930000D01*
X154178000Y-80518000D02*
X154178000Y-76962000D01*
X152146000Y-74930000D02*
X142240000Y-74930000D01*
X154178000Y-76962000D02*
X152146000Y-74930000D01*
D18*
X152781000Y-125857000D02*
X152781000Y-140081000D01*
X152781000Y-140081000D02*
X153797000Y-141097000D01*
D19*
X156500000Y-102900000D02*
X156200000Y-102600000D01*
X178500000Y-124900000D02*
X156500000Y-102900000D01*
X178500000Y-132400000D02*
X178500000Y-124900000D01*
X156200000Y-86300000D02*
X156200000Y-86100000D01*
X156200000Y-102600000D02*
X156200000Y-86300000D01*
X159004000Y-78486000D02*
X159004000Y-103632000D01*
X147300000Y-96000000D02*
X141900000Y-96000000D01*
X161500000Y-110200000D02*
X147300000Y-96000000D01*
G36*
X151246592Y-50247673D02*
X151477998Y-50603606D01*
X151740069Y-51009409D01*
X151740931Y-51010298D01*
X151741393Y-51011444D01*
X152589977Y-52307472D01*
X152592079Y-52309614D01*
X152593243Y-52312377D01*
X153645049Y-53866478D01*
X153647151Y-53868556D01*
X153648340Y-53871263D01*
X154741176Y-55434786D01*
X154743238Y-55436763D01*
X154744424Y-55439362D01*
X155855016Y-56980091D01*
X155857165Y-56982093D01*
X155858426Y-56984749D01*
X156963502Y-58470472D01*
X156965895Y-58472635D01*
X156967324Y-58475522D01*
X158043609Y-59874022D01*
X158046458Y-59876513D01*
X158048203Y-59879875D01*
X159072426Y-61158939D01*
X159076120Y-61162045D01*
X159078447Y-61166271D01*
X160320541Y-62641588D01*
X160324531Y-62644780D01*
X160327111Y-62649188D01*
X161671697Y-64164386D01*
X161675721Y-64167437D01*
X161678383Y-64171728D01*
X163054477Y-65644323D01*
X163058590Y-65647277D01*
X163061369Y-65651510D01*
X164450783Y-67063521D01*
X164455144Y-67066486D01*
X164458155Y-67070814D01*
X165842701Y-68404258D01*
X165847510Y-68407342D01*
X165850908Y-68411935D01*
X167212396Y-69648831D01*
X167217931Y-69652157D01*
X167221940Y-69657219D01*
X168542181Y-70779585D01*
X168548857Y-70783304D01*
X168553831Y-70789104D01*
X169814637Y-71778958D01*
X169819095Y-71781218D01*
X169822444Y-71784928D01*
X170000715Y-71917693D01*
X170004774Y-71919623D01*
X170007862Y-71922890D01*
X171366855Y-72887421D01*
X171373864Y-72890558D01*
X171379352Y-72895927D01*
X172768169Y-73802002D01*
X172775298Y-73804864D01*
X172780993Y-73810014D01*
X174173124Y-74642403D01*
X174180757Y-74645125D01*
X174186990Y-74650310D01*
X175555920Y-75393784D01*
X175564575Y-75396473D01*
X175571803Y-75401940D01*
X176891019Y-76041270D01*
X176901453Y-76043989D01*
X176910399Y-76050012D01*
X177824556Y-76432414D01*
X177814814Y-76442840D01*
X177521012Y-76742042D01*
X176911107Y-77344343D01*
X175610015Y-78549393D01*
X174190800Y-79770709D01*
X172681206Y-80986933D01*
X171110463Y-82175475D01*
X169507846Y-83313820D01*
X167902666Y-84379530D01*
X166320481Y-85352581D01*
X166145305Y-85456392D01*
X166143969Y-85457590D01*
X166142285Y-85458201D01*
X165786786Y-85673279D01*
X165784560Y-85675314D01*
X165781740Y-85676385D01*
X165495878Y-85855383D01*
X165492001Y-85859037D01*
X165487073Y-85861064D01*
X165296488Y-85987732D01*
X165281520Y-86002627D01*
X165262970Y-86012727D01*
X165193297Y-86070814D01*
X165165425Y-86105318D01*
X165132320Y-86134834D01*
X165118550Y-86163344D01*
X165098655Y-86187973D01*
X165086109Y-86230514D01*
X165066819Y-86270454D01*
X165065008Y-86302064D01*
X165056052Y-86332431D01*
X165060740Y-86376534D01*
X165058203Y-86420816D01*
X165068626Y-86450713D01*
X165071973Y-86482197D01*
X165093183Y-86521151D01*
X165107784Y-86563031D01*
X165154635Y-86642662D01*
X165167757Y-86657379D01*
X165176093Y-86675245D01*
X165316992Y-86867309D01*
X165320544Y-86870563D01*
X165322689Y-86874879D01*
X165542444Y-87159514D01*
X165544166Y-87161015D01*
X165545205Y-87163047D01*
X165828490Y-87521287D01*
X165829599Y-87522231D01*
X165830272Y-87523524D01*
X166161764Y-87936400D01*
X166162625Y-87937122D01*
X166163151Y-87938118D01*
X166527522Y-88386665D01*
X166528299Y-88387309D01*
X166528776Y-88388201D01*
X166910700Y-88853451D01*
X166911499Y-88854107D01*
X166911991Y-88855015D01*
X167296145Y-89318001D01*
X167297067Y-89318749D01*
X167297637Y-89319787D01*
X167668693Y-89761541D01*
X167669882Y-89762494D01*
X167670626Y-89763824D01*
X168013261Y-90165379D01*
X168014400Y-90166278D01*
X168015119Y-90167541D01*
X168082017Y-90244779D01*
X168084195Y-90246472D01*
X168085595Y-90248853D01*
X168550643Y-90770791D01*
X168553272Y-90772776D01*
X168554989Y-90775587D01*
X169107461Y-91375098D01*
X169109352Y-91376476D01*
X169110594Y-91378457D01*
X169725516Y-92030006D01*
X169727062Y-92031105D01*
X169728083Y-92032699D01*
X170380489Y-92710750D01*
X170381907Y-92711737D01*
X170382851Y-92713183D01*
X171047771Y-93392201D01*
X171049228Y-93393197D01*
X171050205Y-93394664D01*
X171702670Y-94049115D01*
X171704349Y-94050241D01*
X171705488Y-94051913D01*
X172320529Y-94656259D01*
X172322726Y-94657699D01*
X172324233Y-94659850D01*
X172876880Y-95188556D01*
X172880215Y-95190679D01*
X172882547Y-95193869D01*
X173347832Y-95621401D01*
X173351562Y-95623671D01*
X173354215Y-95627136D01*
X174008497Y-96202035D01*
X174013768Y-96205085D01*
X174017620Y-96209804D01*
X176083889Y-97914693D01*
X176092622Y-97919391D01*
X176099274Y-97926746D01*
X178171527Y-99467129D01*
X178181198Y-99471716D01*
X178188799Y-99479249D01*
X180273625Y-100858773D01*
X180284179Y-100863089D01*
X180292730Y-100870629D01*
X182396720Y-102092944D01*
X182408047Y-102096823D01*
X182417494Y-102104177D01*
X184547239Y-103172931D01*
X184559168Y-103176216D01*
X184569392Y-103183184D01*
X186731480Y-104102027D01*
X186743786Y-104104592D01*
X186754611Y-104110992D01*
X188955634Y-104883572D01*
X188968064Y-104885339D01*
X188979257Y-104891021D01*
X191225804Y-105520988D01*
X191232502Y-105521505D01*
X191238595Y-105524340D01*
X191501371Y-105588405D01*
X191502705Y-105588462D01*
X191503917Y-105589016D01*
X191981977Y-105702137D01*
X191983776Y-105702202D01*
X191985422Y-105702936D01*
X192416439Y-105800764D01*
X192418892Y-105800830D01*
X192421145Y-105801801D01*
X192766082Y-105875575D01*
X192771279Y-105875650D01*
X192776107Y-105877581D01*
X192794586Y-105881024D01*
X192616282Y-106067903D01*
X192276274Y-106415377D01*
X191886437Y-106807072D01*
X191464495Y-107225349D01*
X191027845Y-107652922D01*
X190593595Y-108072802D01*
X190179315Y-108467557D01*
X189802619Y-108819745D01*
X189479927Y-109113069D01*
X189442675Y-109146202D01*
X188068022Y-110321656D01*
X186564360Y-111523679D01*
X184959306Y-112732173D01*
X183283584Y-113924536D01*
X181567592Y-115078490D01*
X179839329Y-116173330D01*
X179718483Y-116247594D01*
X179718033Y-116248011D01*
X179717461Y-116248225D01*
X179358246Y-116470518D01*
X179357466Y-116471246D01*
X179356465Y-116471626D01*
X179056721Y-116659378D01*
X179055460Y-116660567D01*
X179053845Y-116661197D01*
X178841949Y-116796539D01*
X178837866Y-116800457D01*
X178832658Y-116802664D01*
X178736977Y-116867735D01*
X178701812Y-116903480D01*
X178662233Y-116934250D01*
X178649465Y-116956691D01*
X178631355Y-116975100D01*
X178612547Y-117021580D01*
X178587755Y-117065155D01*
X178584547Y-117090776D01*
X178574861Y-117114712D01*
X178575271Y-117164847D01*
X178569041Y-117214598D01*
X178571406Y-117247491D01*
X178574005Y-117256951D01*
X178573275Y-117266734D01*
X178593871Y-117329258D01*
X178611307Y-117392719D01*
X178617327Y-117400463D01*
X178620397Y-117409782D01*
X178702312Y-117554669D01*
X178715058Y-117569470D01*
X178722995Y-117587321D01*
X178889498Y-117823160D01*
X178895550Y-117828908D01*
X178899262Y-117836383D01*
X179133409Y-118139745D01*
X179137751Y-118143531D01*
X179140466Y-118148617D01*
X179425312Y-118496073D01*
X179430054Y-118499969D01*
X179433113Y-118505291D01*
X181253350Y-120589106D01*
X181259293Y-120593685D01*
X181263278Y-120600042D01*
X183588042Y-123064423D01*
X183594375Y-123068927D01*
X183598763Y-123075347D01*
X186060868Y-125486235D01*
X186067131Y-125490325D01*
X186071584Y-125496335D01*
X188654821Y-127839660D01*
X188661091Y-127843421D01*
X188665659Y-127849129D01*
X191353817Y-130110820D01*
X191360177Y-130114320D01*
X191364920Y-130119816D01*
X194141795Y-132285801D01*
X194148335Y-132289091D01*
X194153321Y-132294450D01*
X197002701Y-134350658D01*
X197009518Y-134353774D01*
X197014829Y-134359062D01*
X199920507Y-136291422D01*
X199924069Y-136292888D01*
X199926849Y-136295550D01*
X200539102Y-136685627D01*
X200518421Y-136698853D01*
X200321369Y-136823365D01*
X199508093Y-137313391D01*
X198575837Y-137843813D01*
X197554363Y-138399239D01*
X196475330Y-138963255D01*
X195370077Y-139519672D01*
X194270213Y-140052204D01*
X193206992Y-140544782D01*
X192212961Y-140980813D01*
X189497089Y-142075372D01*
X186040230Y-143312499D01*
X182476460Y-144420316D01*
X178805849Y-145398865D01*
X175029342Y-146247886D01*
X171147793Y-146967143D01*
X167162098Y-147556388D01*
X163073214Y-148015373D01*
X158882037Y-148343854D01*
X154588934Y-148541619D01*
X151650272Y-148594970D01*
X147783462Y-148555556D01*
X143938323Y-148392982D01*
X140124344Y-148109075D01*
X136351942Y-147705684D01*
X132631447Y-147184662D01*
X128973222Y-146547877D01*
X125387658Y-145797214D01*
X121885061Y-144934554D01*
X118475866Y-143961826D01*
X115170403Y-142880948D01*
X111979048Y-141693878D01*
X108908151Y-140400906D01*
X108883362Y-140389798D01*
X108244343Y-140095010D01*
X107529264Y-139751344D01*
X106760180Y-139370471D01*
X105960247Y-138964601D01*
X105152686Y-138545989D01*
X104360928Y-138127022D01*
X103607975Y-137719871D01*
X102917371Y-137337019D01*
X102312599Y-136990952D01*
X101818551Y-136695090D01*
X101812099Y-136690916D01*
X102002792Y-136562671D01*
X102422787Y-136292379D01*
X102423145Y-136292033D01*
X102423608Y-136291849D01*
X103463105Y-135619143D01*
X103466782Y-135615573D01*
X103471497Y-135613556D01*
X106323279Y-133660512D01*
X106328368Y-133655305D01*
X106334953Y-133652195D01*
X107639449Y-132685750D01*
X169265000Y-132685750D01*
X169265000Y-133526310D01*
X169361673Y-133759699D01*
X169540302Y-133938327D01*
X169773691Y-134035000D01*
X170614250Y-134035000D01*
X170773000Y-133876250D01*
X170773000Y-132527000D01*
X171027000Y-132527000D01*
X171027000Y-133876250D01*
X171185750Y-134035000D01*
X172026309Y-134035000D01*
X172259698Y-133938327D01*
X172438327Y-133759699D01*
X172535000Y-133526310D01*
X172535000Y-132685750D01*
X172376250Y-132527000D01*
X171027000Y-132527000D01*
X170773000Y-132527000D01*
X169423750Y-132527000D01*
X169265000Y-132685750D01*
X107639449Y-132685750D01*
X109134700Y-131577983D01*
X109139497Y-131572696D01*
X109145835Y-131569415D01*
X109516035Y-131273690D01*
X169265000Y-131273690D01*
X169265000Y-132114250D01*
X169423750Y-132273000D01*
X170773000Y-132273000D01*
X170773000Y-130923750D01*
X171027000Y-130923750D01*
X171027000Y-132273000D01*
X172376250Y-132273000D01*
X172535000Y-132114250D01*
X172535000Y-131273690D01*
X172438327Y-131040301D01*
X172259698Y-130861673D01*
X172026309Y-130765000D01*
X171185750Y-130765000D01*
X171027000Y-130923750D01*
X170773000Y-130923750D01*
X170614250Y-130765000D01*
X169773691Y-130765000D01*
X169540302Y-130861673D01*
X169361673Y-131040301D01*
X169265000Y-131273690D01*
X109516035Y-131273690D01*
X111870521Y-129392869D01*
X111875134Y-129387396D01*
X111881367Y-129383876D01*
X112752997Y-128633885D01*
X129568796Y-128633885D01*
X129748213Y-129068109D01*
X130080144Y-129400619D01*
X130514054Y-129580794D01*
X130983885Y-129581204D01*
X131418109Y-129401787D01*
X131750619Y-129069856D01*
X131930794Y-128635946D01*
X131931204Y-128166115D01*
X131751787Y-127731891D01*
X131419856Y-127399381D01*
X130985946Y-127219206D01*
X130516115Y-127218796D01*
X130081891Y-127398213D01*
X129749381Y-127730144D01*
X129569206Y-128164054D01*
X129568796Y-128633885D01*
X112752997Y-128633885D01*
X114507964Y-127123831D01*
X114512491Y-127118045D01*
X114518746Y-127114196D01*
X115575289Y-126133885D01*
X132868796Y-126133885D01*
X133048213Y-126568109D01*
X133380144Y-126900619D01*
X133814054Y-127080794D01*
X134283885Y-127081204D01*
X134718109Y-126901787D01*
X135050619Y-126569856D01*
X135191941Y-126229513D01*
X138199674Y-126229513D01*
X138485436Y-126921109D01*
X139014108Y-127450704D01*
X139705204Y-127737673D01*
X140453513Y-127738326D01*
X141145109Y-127452564D01*
X141674704Y-126923892D01*
X141961673Y-126232796D01*
X141961751Y-126142750D01*
X148146000Y-126142750D01*
X148146000Y-129983310D01*
X148242673Y-130216699D01*
X148421302Y-130395327D01*
X148654691Y-130492000D01*
X152495250Y-130492000D01*
X152654000Y-130333250D01*
X152654000Y-125984000D01*
X152908000Y-125984000D01*
X152908000Y-130333250D01*
X153066750Y-130492000D01*
X156907309Y-130492000D01*
X157140698Y-130395327D01*
X157319327Y-130216699D01*
X157416000Y-129983310D01*
X157416000Y-126229513D01*
X163599674Y-126229513D01*
X163885436Y-126921109D01*
X164414108Y-127450704D01*
X165105204Y-127737673D01*
X165853513Y-127738326D01*
X166545109Y-127452564D01*
X167074704Y-126923892D01*
X167361673Y-126232796D01*
X167362326Y-125484487D01*
X167076564Y-124792891D01*
X166547892Y-124263296D01*
X165856796Y-123976327D01*
X165108487Y-123975674D01*
X164416891Y-124261436D01*
X163887296Y-124790108D01*
X163600327Y-125481204D01*
X163599674Y-126229513D01*
X157416000Y-126229513D01*
X157416000Y-126142750D01*
X157257250Y-125984000D01*
X152908000Y-125984000D01*
X152654000Y-125984000D01*
X148304750Y-125984000D01*
X148146000Y-126142750D01*
X141961751Y-126142750D01*
X141962326Y-125484487D01*
X141676564Y-124792891D01*
X141147892Y-124263296D01*
X140456796Y-123976327D01*
X139708487Y-123975674D01*
X139016891Y-124261436D01*
X138487296Y-124790108D01*
X138200327Y-125481204D01*
X138199674Y-126229513D01*
X135191941Y-126229513D01*
X135230794Y-126135946D01*
X135231204Y-125666115D01*
X135051787Y-125231891D01*
X134719856Y-124899381D01*
X134285946Y-124719206D01*
X133816115Y-124718796D01*
X133381891Y-124898213D01*
X133049381Y-125230144D01*
X132869206Y-125664054D01*
X132868796Y-126133885D01*
X115575289Y-126133885D01*
X117024229Y-124789490D01*
X117028750Y-124783242D01*
X117035158Y-124778943D01*
X118175776Y-123633885D01*
X129568796Y-123633885D01*
X129748213Y-124068109D01*
X130080144Y-124400619D01*
X130514054Y-124580794D01*
X130983885Y-124581204D01*
X131418109Y-124401787D01*
X131750619Y-124069856D01*
X131930794Y-123635946D01*
X131931204Y-123166115D01*
X131751787Y-122731891D01*
X131419856Y-122399381D01*
X130985946Y-122219206D01*
X130516115Y-122218796D01*
X130081891Y-122398213D01*
X129749381Y-122730144D01*
X129569206Y-123164054D01*
X129568796Y-123633885D01*
X118175776Y-123633885D01*
X119396499Y-122408412D01*
X119399256Y-122404268D01*
X119403315Y-122401393D01*
X119982673Y-121789520D01*
X119983605Y-121788040D01*
X119985023Y-121787016D01*
X120037413Y-121730690D01*
X148146000Y-121730690D01*
X148146000Y-125571250D01*
X148304750Y-125730000D01*
X152654000Y-125730000D01*
X152654000Y-121380750D01*
X152908000Y-121380750D01*
X152908000Y-125730000D01*
X157257250Y-125730000D01*
X157416000Y-125571250D01*
X157416000Y-121730690D01*
X157319327Y-121497301D01*
X157140698Y-121318673D01*
X156907309Y-121222000D01*
X153066750Y-121222000D01*
X152908000Y-121380750D01*
X152654000Y-121380750D01*
X152495250Y-121222000D01*
X148654691Y-121222000D01*
X148421302Y-121318673D01*
X148242673Y-121497301D01*
X148146000Y-121730690D01*
X120037413Y-121730690D01*
X120569694Y-121158425D01*
X120570574Y-121156998D01*
X120571926Y-121156005D01*
X121137607Y-120537328D01*
X121138476Y-120535893D01*
X121139824Y-120534884D01*
X121675678Y-119938672D01*
X121676595Y-119937128D01*
X121678023Y-119936039D01*
X122173213Y-119374842D01*
X122174254Y-119373052D01*
X122175886Y-119371780D01*
X122619575Y-118858148D01*
X122620865Y-118855875D01*
X122622905Y-118854241D01*
X123004253Y-118400720D01*
X123006039Y-118397472D01*
X123008887Y-118395102D01*
X123317057Y-118014246D01*
X123319939Y-118008762D01*
X123324572Y-118004652D01*
X123548726Y-117709009D01*
X123554702Y-117696713D01*
X123564272Y-117686944D01*
X123693574Y-117489062D01*
X123716214Y-117432776D01*
X123743134Y-117378402D01*
X123766744Y-117290833D01*
X123766903Y-117288459D01*
X123767932Y-117286316D01*
X123771939Y-117213413D01*
X123776827Y-117140561D01*
X123776066Y-117138309D01*
X123776197Y-117135934D01*
X123751997Y-117067040D01*
X123728637Y-116997869D01*
X123727072Y-116996079D01*
X123726284Y-116993836D01*
X123677571Y-116939456D01*
X123629510Y-116884481D01*
X123627380Y-116883426D01*
X123625792Y-116881654D01*
X123609245Y-116869232D01*
X123598695Y-116864167D01*
X123590379Y-116855932D01*
X123453317Y-116765319D01*
X123449965Y-116763950D01*
X123447347Y-116761451D01*
X123203240Y-116606457D01*
X123201831Y-116605911D01*
X123200729Y-116604876D01*
X122878080Y-116403476D01*
X122877081Y-116403098D01*
X122876300Y-116402372D01*
X122504960Y-116173370D01*
X121326702Y-115433300D01*
X119801140Y-114426291D01*
X118280693Y-113370661D01*
X116795820Y-112288711D01*
X115377395Y-111203085D01*
X114056342Y-110136539D01*
X112861324Y-109110012D01*
X112771366Y-109029329D01*
X112429985Y-108715827D01*
X112039734Y-108348553D01*
X111617393Y-107944151D01*
X111180475Y-107519971D01*
X110746535Y-107093437D01*
X110332663Y-106681523D01*
X109956503Y-106301769D01*
X109635573Y-105971617D01*
X109551490Y-105882500D01*
X109827360Y-105828914D01*
X109833245Y-105826507D01*
X109839598Y-105826330D01*
X110365752Y-105706316D01*
X110369176Y-105704784D01*
X110372922Y-105704608D01*
X110985632Y-105552486D01*
X110988124Y-105551314D01*
X110990872Y-105551146D01*
X111656289Y-105376004D01*
X111658447Y-105374952D01*
X111660841Y-105374776D01*
X112345117Y-105185704D01*
X112347299Y-105184607D01*
X112349732Y-105184398D01*
X113019017Y-104990484D01*
X113021575Y-104989157D01*
X113024441Y-104988869D01*
X113644886Y-104799201D01*
X113648377Y-104797325D01*
X113652310Y-104796849D01*
X114190068Y-104620519D01*
X114193609Y-104618523D01*
X114197635Y-104617951D01*
X114694070Y-104443710D01*
X114699924Y-104440249D01*
X114706621Y-104439059D01*
X116696970Y-103661964D01*
X116706371Y-103655957D01*
X116717224Y-103653383D01*
X118660124Y-102764150D01*
X118669199Y-102757595D01*
X118679925Y-102754393D01*
X120590053Y-101744313D01*
X120598512Y-101737433D01*
X120608773Y-101733737D01*
X122500811Y-100594102D01*
X122508447Y-100587150D01*
X122517963Y-100583144D01*
X124406587Y-99305246D01*
X124413281Y-99298474D01*
X124421868Y-99294356D01*
X126321759Y-97869486D01*
X126327483Y-97863102D01*
X126335045Y-97859060D01*
X128260881Y-96278509D01*
X128263721Y-96275049D01*
X128267621Y-96272848D01*
X128310836Y-96235700D01*
X128313207Y-96232673D01*
X128316520Y-96230717D01*
X128414206Y-96143361D01*
X141175975Y-96143361D01*
X141285950Y-96409521D01*
X141489408Y-96613335D01*
X141755376Y-96723774D01*
X142043361Y-96724025D01*
X142309521Y-96614050D01*
X142415757Y-96508000D01*
X147089580Y-96508000D01*
X160776105Y-110194526D01*
X160775975Y-110343361D01*
X160885950Y-110609521D01*
X161089408Y-110813335D01*
X161355376Y-110923774D01*
X161643361Y-110924025D01*
X161909521Y-110814050D01*
X162113335Y-110610592D01*
X162223774Y-110344624D01*
X162224025Y-110056639D01*
X162114050Y-109790479D01*
X161910592Y-109586665D01*
X161644624Y-109476226D01*
X161494516Y-109476095D01*
X147659210Y-95640790D01*
X147494403Y-95530669D01*
X147300000Y-95492000D01*
X142415743Y-95492000D01*
X142310592Y-95386665D01*
X142044624Y-95276226D01*
X141756639Y-95275975D01*
X141490479Y-95385950D01*
X141286665Y-95589408D01*
X141176226Y-95855376D01*
X141175975Y-96143361D01*
X128414206Y-96143361D01*
X128718231Y-95871488D01*
X128720761Y-95868124D01*
X128724339Y-95865907D01*
X129217180Y-95405797D01*
X129218714Y-95403663D01*
X129220930Y-95402249D01*
X129783993Y-94862308D01*
X129785085Y-94860746D01*
X129786680Y-94859706D01*
X130399054Y-94260982D01*
X130399931Y-94259701D01*
X130401223Y-94258844D01*
X131042000Y-93622384D01*
X131042782Y-93621222D01*
X131043946Y-93620438D01*
X131692214Y-92967290D01*
X131692985Y-92966127D01*
X131694140Y-92965337D01*
X132328993Y-92316549D01*
X132329833Y-92315262D01*
X132331094Y-92314385D01*
X132931624Y-91691007D01*
X132932634Y-91689433D01*
X132934158Y-91688351D01*
X133479451Y-91111428D01*
X133480805Y-91109273D01*
X133482861Y-91107773D01*
X133952011Y-90598355D01*
X133954089Y-90594951D01*
X133957259Y-90592538D01*
X134329356Y-90171673D01*
X134331167Y-90168566D01*
X134333987Y-90166337D01*
X134578487Y-89879372D01*
X134579044Y-89878374D01*
X134579937Y-89877660D01*
X134973366Y-89410428D01*
X134973920Y-89409422D01*
X134974810Y-89408702D01*
X135376999Y-88925377D01*
X135377485Y-88924482D01*
X135378274Y-88923837D01*
X135774501Y-88442626D01*
X135774978Y-88441737D01*
X135775756Y-88441094D01*
X136151297Y-87980208D01*
X136151825Y-87979213D01*
X136152691Y-87978488D01*
X136492825Y-87556131D01*
X136493499Y-87554841D01*
X136494610Y-87553898D01*
X136784612Y-87188281D01*
X136785646Y-87186267D01*
X136787357Y-87184780D01*
X137012506Y-86894108D01*
X137014602Y-86889906D01*
X137018070Y-86886744D01*
X137163644Y-86689225D01*
X137171789Y-86671869D01*
X137184622Y-86657621D01*
X137235896Y-86571463D01*
X137239497Y-86561299D01*
X137246257Y-86552907D01*
X137264520Y-86490665D01*
X137286190Y-86429499D01*
X137285627Y-86418733D01*
X137288662Y-86408391D01*
X137281715Y-86343891D01*
X137278328Y-86279095D01*
X137273688Y-86269364D01*
X137272534Y-86258648D01*
X137241433Y-86201715D01*
X137213508Y-86143149D01*
X137205498Y-86135935D01*
X137200330Y-86126474D01*
X137185333Y-86108536D01*
X137148827Y-86079129D01*
X137117127Y-86044604D01*
X136989345Y-85951108D01*
X136979618Y-85946584D01*
X136971939Y-85939090D01*
X136734820Y-85784795D01*
X136730739Y-85783163D01*
X136727526Y-85780164D01*
X136406732Y-85581497D01*
X136403903Y-85580438D01*
X136401665Y-85578413D01*
X136023900Y-85352422D01*
X134965774Y-84710192D01*
X133405325Y-83698335D01*
X131834297Y-82607578D01*
X130280929Y-81459608D01*
X128774250Y-80276713D01*
X127343317Y-79081297D01*
X126017267Y-77895958D01*
X124822092Y-76740459D01*
X124569278Y-76483457D01*
X124521145Y-76432626D01*
X125354049Y-76085844D01*
X125362874Y-76079924D01*
X125373166Y-76077269D01*
X126692224Y-75442022D01*
X126699567Y-75436495D01*
X126708349Y-75433785D01*
X127374857Y-75073361D01*
X132117975Y-75073361D01*
X132227950Y-75339521D01*
X132431408Y-75543335D01*
X132697376Y-75653774D01*
X132985361Y-75654025D01*
X133200818Y-75565000D01*
X142113000Y-75565000D01*
X142113000Y-92859583D01*
X142024226Y-93073376D01*
X142023975Y-93361361D01*
X142133950Y-93627521D01*
X142337408Y-93831335D01*
X142603376Y-93941774D01*
X142891361Y-93942025D01*
X143157521Y-93832050D01*
X143361335Y-93628592D01*
X143471774Y-93362624D01*
X143472025Y-93074639D01*
X143383000Y-92859182D01*
X143383000Y-86243361D01*
X155475975Y-86243361D01*
X155585950Y-86509521D01*
X155692000Y-86615757D01*
X155692000Y-102600000D01*
X155730669Y-102794403D01*
X155840790Y-102959210D01*
X156140790Y-103259210D01*
X177992000Y-125110421D01*
X177992000Y-131115658D01*
X177718749Y-131228563D01*
X177329928Y-131616705D01*
X177119241Y-132124097D01*
X177118761Y-132673493D01*
X177328563Y-133181251D01*
X177716705Y-133570072D01*
X178224097Y-133780759D01*
X178773493Y-133781239D01*
X179281251Y-133571437D01*
X179670072Y-133183295D01*
X179880759Y-132675903D01*
X179881239Y-132126507D01*
X179671437Y-131618749D01*
X179283295Y-131229928D01*
X179008000Y-131115616D01*
X179008000Y-124900000D01*
X178972038Y-124719206D01*
X178969331Y-124705596D01*
X178859210Y-124540789D01*
X156859210Y-102540790D01*
X156708000Y-102389580D01*
X156708000Y-86615743D01*
X156813335Y-86510592D01*
X156923774Y-86244624D01*
X156924025Y-85956639D01*
X156814050Y-85690479D01*
X156610592Y-85486665D01*
X156344624Y-85376226D01*
X156056639Y-85375975D01*
X155790479Y-85485950D01*
X155586665Y-85689408D01*
X155476226Y-85955376D01*
X155475975Y-86243361D01*
X143383000Y-86243361D01*
X143383000Y-80803750D01*
X147703000Y-80803750D01*
X147703000Y-81404310D01*
X147799673Y-81637699D01*
X147978302Y-81816327D01*
X148211691Y-81913000D01*
X148319591Y-81913000D01*
X148196810Y-81936103D01*
X148067135Y-82019546D01*
X147980141Y-82146866D01*
X147949536Y-82298000D01*
X147949536Y-83818000D01*
X147976103Y-83959190D01*
X148059546Y-84088865D01*
X148186866Y-84175859D01*
X148338000Y-84206464D01*
X149858000Y-84206464D01*
X149999190Y-84179897D01*
X150128865Y-84096454D01*
X150215859Y-83969134D01*
X150246464Y-83818000D01*
X150246464Y-82298000D01*
X150489536Y-82298000D01*
X150489536Y-83818000D01*
X150516103Y-83959190D01*
X150599546Y-84088865D01*
X150726866Y-84175859D01*
X150878000Y-84206464D01*
X152398000Y-84206464D01*
X152539190Y-84179897D01*
X152668865Y-84096454D01*
X152755859Y-83969134D01*
X152786464Y-83818000D01*
X152786464Y-82298000D01*
X153029536Y-82298000D01*
X153029536Y-83818000D01*
X153056103Y-83959190D01*
X153139546Y-84088865D01*
X153266866Y-84175859D01*
X153418000Y-84206464D01*
X154938000Y-84206464D01*
X155079190Y-84179897D01*
X155208865Y-84096454D01*
X155295859Y-83969134D01*
X155326464Y-83818000D01*
X155326464Y-82298000D01*
X155299897Y-82156810D01*
X155216454Y-82027135D01*
X155089134Y-81940141D01*
X154938000Y-81909536D01*
X153418000Y-81909536D01*
X153276810Y-81936103D01*
X153147135Y-82019546D01*
X153060141Y-82146866D01*
X153029536Y-82298000D01*
X152786464Y-82298000D01*
X152759897Y-82156810D01*
X152676454Y-82027135D01*
X152549134Y-81940141D01*
X152398000Y-81909536D01*
X150878000Y-81909536D01*
X150736810Y-81936103D01*
X150607135Y-82019546D01*
X150520141Y-82146866D01*
X150489536Y-82298000D01*
X150246464Y-82298000D01*
X150219897Y-82156810D01*
X150136454Y-82027135D01*
X150009134Y-81940141D01*
X149875106Y-81913000D01*
X149984309Y-81913000D01*
X150217698Y-81816327D01*
X150396327Y-81637699D01*
X150493000Y-81404310D01*
X150493000Y-81296409D01*
X150516103Y-81419190D01*
X150599546Y-81548865D01*
X150726866Y-81635859D01*
X150878000Y-81666464D01*
X152398000Y-81666464D01*
X152539190Y-81639897D01*
X152668865Y-81556454D01*
X152755859Y-81429134D01*
X152786464Y-81278000D01*
X152786464Y-79758000D01*
X152759897Y-79616810D01*
X152676454Y-79487135D01*
X152549134Y-79400141D01*
X152398000Y-79369536D01*
X150878000Y-79369536D01*
X150736810Y-79396103D01*
X150607135Y-79479546D01*
X150520141Y-79606866D01*
X150493000Y-79740894D01*
X150493000Y-79631690D01*
X150396327Y-79398301D01*
X150217698Y-79219673D01*
X149984309Y-79123000D01*
X149383750Y-79123000D01*
X149225000Y-79281750D01*
X149225000Y-80391000D01*
X149245000Y-80391000D01*
X149245000Y-80645000D01*
X149225000Y-80645000D01*
X149225000Y-80665000D01*
X148971000Y-80665000D01*
X148971000Y-80645000D01*
X147861750Y-80645000D01*
X147703000Y-80803750D01*
X143383000Y-80803750D01*
X143383000Y-79631690D01*
X147703000Y-79631690D01*
X147703000Y-80232250D01*
X147861750Y-80391000D01*
X148971000Y-80391000D01*
X148971000Y-79281750D01*
X148812250Y-79123000D01*
X148211691Y-79123000D01*
X147978302Y-79219673D01*
X147799673Y-79398301D01*
X147703000Y-79631690D01*
X143383000Y-79631690D01*
X143383000Y-75565000D01*
X152062580Y-75565000D01*
X153543000Y-77045420D01*
X153543000Y-79369536D01*
X153418000Y-79369536D01*
X153276810Y-79396103D01*
X153147135Y-79479546D01*
X153060141Y-79606866D01*
X153029536Y-79758000D01*
X153029536Y-81278000D01*
X153056103Y-81419190D01*
X153139546Y-81548865D01*
X153266866Y-81635859D01*
X153418000Y-81666464D01*
X154938000Y-81666464D01*
X155079190Y-81639897D01*
X155208865Y-81556454D01*
X155295859Y-81429134D01*
X155326464Y-81278000D01*
X155326464Y-79758000D01*
X155299897Y-79616810D01*
X155216454Y-79487135D01*
X155089134Y-79400141D01*
X154938000Y-79369536D01*
X154813000Y-79369536D01*
X154813000Y-78629361D01*
X158279975Y-78629361D01*
X158389950Y-78895521D01*
X158496000Y-79001757D01*
X158496000Y-103116257D01*
X158390665Y-103221408D01*
X158280226Y-103487376D01*
X158279975Y-103775361D01*
X158389950Y-104041521D01*
X158593408Y-104245335D01*
X158859376Y-104355774D01*
X159147361Y-104356025D01*
X159413521Y-104246050D01*
X159617335Y-104042592D01*
X159727774Y-103776624D01*
X159728025Y-103488639D01*
X159618050Y-103222479D01*
X159512000Y-103116243D01*
X159512000Y-79001743D01*
X159617335Y-78896592D01*
X159727774Y-78630624D01*
X159728025Y-78342639D01*
X159618050Y-78076479D01*
X159414592Y-77872665D01*
X159148624Y-77762226D01*
X158860639Y-77761975D01*
X158594479Y-77871950D01*
X158390665Y-78075408D01*
X158280226Y-78341376D01*
X158279975Y-78629361D01*
X154813000Y-78629361D01*
X154813000Y-76708000D01*
X154764664Y-76464996D01*
X154627013Y-76258987D01*
X152849013Y-74480987D01*
X152643004Y-74343336D01*
X152400000Y-74295000D01*
X133200417Y-74295000D01*
X132986624Y-74206226D01*
X132698639Y-74205975D01*
X132432479Y-74315950D01*
X132228665Y-74519408D01*
X132118226Y-74785376D01*
X132117975Y-75073361D01*
X127374857Y-75073361D01*
X128077813Y-74693228D01*
X128084080Y-74688034D01*
X128091752Y-74685312D01*
X129485313Y-73855162D01*
X129490982Y-73850052D01*
X129498075Y-73847220D01*
X130889431Y-72943193D01*
X130894845Y-72937916D01*
X130901750Y-72934846D01*
X132264596Y-71972659D01*
X132270022Y-71966946D01*
X132277090Y-71963457D01*
X133585121Y-70958825D01*
X133588786Y-70954643D01*
X133593701Y-70952040D01*
X134104866Y-70535890D01*
X134108752Y-70531193D01*
X134114049Y-70528174D01*
X135963560Y-68924367D01*
X135968928Y-68917452D01*
X135976332Y-68912782D01*
X137836860Y-67147824D01*
X137841448Y-67141335D01*
X137847990Y-67136828D01*
X139714676Y-65216433D01*
X139718630Y-65210329D01*
X139724465Y-65205982D01*
X141592451Y-63135867D01*
X141595891Y-63130099D01*
X141601138Y-63125903D01*
X143465566Y-60911783D01*
X143468584Y-60906305D01*
X143473341Y-60902245D01*
X145329353Y-58549836D01*
X145332020Y-58544607D01*
X145336369Y-58540665D01*
X147179108Y-56055683D01*
X147181482Y-56050664D01*
X147185488Y-56046820D01*
X147748240Y-55241265D01*
X149224670Y-55241265D01*
X149514078Y-55941686D01*
X150049495Y-56478039D01*
X150749410Y-56768668D01*
X151507265Y-56769330D01*
X152207686Y-56479922D01*
X152744039Y-55944505D01*
X153034668Y-55244590D01*
X153035330Y-54486735D01*
X152745922Y-53786314D01*
X152210505Y-53249961D01*
X151510590Y-52959332D01*
X150752735Y-52958670D01*
X150052314Y-53248078D01*
X149515961Y-53783495D01*
X149225332Y-54483410D01*
X149224670Y-55241265D01*
X147748240Y-55241265D01*
X149010094Y-53434980D01*
X149012220Y-53430135D01*
X149015937Y-53426371D01*
X150817553Y-50693389D01*
X150818114Y-50692011D01*
X150819152Y-50690944D01*
X150925651Y-50526696D01*
X151146961Y-50198841D01*
X151182407Y-50149817D01*
X151246592Y-50247673D01*
X151246592Y-50247673D01*
G37*
X151246592Y-50247673D02*
X151477998Y-50603606D01*
X151740069Y-51009409D01*
X151740931Y-51010298D01*
X151741393Y-51011444D01*
X152589977Y-52307472D01*
X152592079Y-52309614D01*
X152593243Y-52312377D01*
X153645049Y-53866478D01*
X153647151Y-53868556D01*
X153648340Y-53871263D01*
X154741176Y-55434786D01*
X154743238Y-55436763D01*
X154744424Y-55439362D01*
X155855016Y-56980091D01*
X155857165Y-56982093D01*
X155858426Y-56984749D01*
X156963502Y-58470472D01*
X156965895Y-58472635D01*
X156967324Y-58475522D01*
X158043609Y-59874022D01*
X158046458Y-59876513D01*
X158048203Y-59879875D01*
X159072426Y-61158939D01*
X159076120Y-61162045D01*
X159078447Y-61166271D01*
X160320541Y-62641588D01*
X160324531Y-62644780D01*
X160327111Y-62649188D01*
X161671697Y-64164386D01*
X161675721Y-64167437D01*
X161678383Y-64171728D01*
X163054477Y-65644323D01*
X163058590Y-65647277D01*
X163061369Y-65651510D01*
X164450783Y-67063521D01*
X164455144Y-67066486D01*
X164458155Y-67070814D01*
X165842701Y-68404258D01*
X165847510Y-68407342D01*
X165850908Y-68411935D01*
X167212396Y-69648831D01*
X167217931Y-69652157D01*
X167221940Y-69657219D01*
X168542181Y-70779585D01*
X168548857Y-70783304D01*
X168553831Y-70789104D01*
X169814637Y-71778958D01*
X169819095Y-71781218D01*
X169822444Y-71784928D01*
X170000715Y-71917693D01*
X170004774Y-71919623D01*
X170007862Y-71922890D01*
X171366855Y-72887421D01*
X171373864Y-72890558D01*
X171379352Y-72895927D01*
X172768169Y-73802002D01*
X172775298Y-73804864D01*
X172780993Y-73810014D01*
X174173124Y-74642403D01*
X174180757Y-74645125D01*
X174186990Y-74650310D01*
X175555920Y-75393784D01*
X175564575Y-75396473D01*
X175571803Y-75401940D01*
X176891019Y-76041270D01*
X176901453Y-76043989D01*
X176910399Y-76050012D01*
X177824556Y-76432414D01*
X177814814Y-76442840D01*
X177521012Y-76742042D01*
X176911107Y-77344343D01*
X175610015Y-78549393D01*
X174190800Y-79770709D01*
X172681206Y-80986933D01*
X171110463Y-82175475D01*
X169507846Y-83313820D01*
X167902666Y-84379530D01*
X166320481Y-85352581D01*
X166145305Y-85456392D01*
X166143969Y-85457590D01*
X166142285Y-85458201D01*
X165786786Y-85673279D01*
X165784560Y-85675314D01*
X165781740Y-85676385D01*
X165495878Y-85855383D01*
X165492001Y-85859037D01*
X165487073Y-85861064D01*
X165296488Y-85987732D01*
X165281520Y-86002627D01*
X165262970Y-86012727D01*
X165193297Y-86070814D01*
X165165425Y-86105318D01*
X165132320Y-86134834D01*
X165118550Y-86163344D01*
X165098655Y-86187973D01*
X165086109Y-86230514D01*
X165066819Y-86270454D01*
X165065008Y-86302064D01*
X165056052Y-86332431D01*
X165060740Y-86376534D01*
X165058203Y-86420816D01*
X165068626Y-86450713D01*
X165071973Y-86482197D01*
X165093183Y-86521151D01*
X165107784Y-86563031D01*
X165154635Y-86642662D01*
X165167757Y-86657379D01*
X165176093Y-86675245D01*
X165316992Y-86867309D01*
X165320544Y-86870563D01*
X165322689Y-86874879D01*
X165542444Y-87159514D01*
X165544166Y-87161015D01*
X165545205Y-87163047D01*
X165828490Y-87521287D01*
X165829599Y-87522231D01*
X165830272Y-87523524D01*
X166161764Y-87936400D01*
X166162625Y-87937122D01*
X166163151Y-87938118D01*
X166527522Y-88386665D01*
X166528299Y-88387309D01*
X166528776Y-88388201D01*
X166910700Y-88853451D01*
X166911499Y-88854107D01*
X166911991Y-88855015D01*
X167296145Y-89318001D01*
X167297067Y-89318749D01*
X167297637Y-89319787D01*
X167668693Y-89761541D01*
X167669882Y-89762494D01*
X167670626Y-89763824D01*
X168013261Y-90165379D01*
X168014400Y-90166278D01*
X168015119Y-90167541D01*
X168082017Y-90244779D01*
X168084195Y-90246472D01*
X168085595Y-90248853D01*
X168550643Y-90770791D01*
X168553272Y-90772776D01*
X168554989Y-90775587D01*
X169107461Y-91375098D01*
X169109352Y-91376476D01*
X169110594Y-91378457D01*
X169725516Y-92030006D01*
X169727062Y-92031105D01*
X169728083Y-92032699D01*
X170380489Y-92710750D01*
X170381907Y-92711737D01*
X170382851Y-92713183D01*
X171047771Y-93392201D01*
X171049228Y-93393197D01*
X171050205Y-93394664D01*
X171702670Y-94049115D01*
X171704349Y-94050241D01*
X171705488Y-94051913D01*
X172320529Y-94656259D01*
X172322726Y-94657699D01*
X172324233Y-94659850D01*
X172876880Y-95188556D01*
X172880215Y-95190679D01*
X172882547Y-95193869D01*
X173347832Y-95621401D01*
X173351562Y-95623671D01*
X173354215Y-95627136D01*
X174008497Y-96202035D01*
X174013768Y-96205085D01*
X174017620Y-96209804D01*
X176083889Y-97914693D01*
X176092622Y-97919391D01*
X176099274Y-97926746D01*
X178171527Y-99467129D01*
X178181198Y-99471716D01*
X178188799Y-99479249D01*
X180273625Y-100858773D01*
X180284179Y-100863089D01*
X180292730Y-100870629D01*
X182396720Y-102092944D01*
X182408047Y-102096823D01*
X182417494Y-102104177D01*
X184547239Y-103172931D01*
X184559168Y-103176216D01*
X184569392Y-103183184D01*
X186731480Y-104102027D01*
X186743786Y-104104592D01*
X186754611Y-104110992D01*
X188955634Y-104883572D01*
X188968064Y-104885339D01*
X188979257Y-104891021D01*
X191225804Y-105520988D01*
X191232502Y-105521505D01*
X191238595Y-105524340D01*
X191501371Y-105588405D01*
X191502705Y-105588462D01*
X191503917Y-105589016D01*
X191981977Y-105702137D01*
X191983776Y-105702202D01*
X191985422Y-105702936D01*
X192416439Y-105800764D01*
X192418892Y-105800830D01*
X192421145Y-105801801D01*
X192766082Y-105875575D01*
X192771279Y-105875650D01*
X192776107Y-105877581D01*
X192794586Y-105881024D01*
X192616282Y-106067903D01*
X192276274Y-106415377D01*
X191886437Y-106807072D01*
X191464495Y-107225349D01*
X191027845Y-107652922D01*
X190593595Y-108072802D01*
X190179315Y-108467557D01*
X189802619Y-108819745D01*
X189479927Y-109113069D01*
X189442675Y-109146202D01*
X188068022Y-110321656D01*
X186564360Y-111523679D01*
X184959306Y-112732173D01*
X183283584Y-113924536D01*
X181567592Y-115078490D01*
X179839329Y-116173330D01*
X179718483Y-116247594D01*
X179718033Y-116248011D01*
X179717461Y-116248225D01*
X179358246Y-116470518D01*
X179357466Y-116471246D01*
X179356465Y-116471626D01*
X179056721Y-116659378D01*
X179055460Y-116660567D01*
X179053845Y-116661197D01*
X178841949Y-116796539D01*
X178837866Y-116800457D01*
X178832658Y-116802664D01*
X178736977Y-116867735D01*
X178701812Y-116903480D01*
X178662233Y-116934250D01*
X178649465Y-116956691D01*
X178631355Y-116975100D01*
X178612547Y-117021580D01*
X178587755Y-117065155D01*
X178584547Y-117090776D01*
X178574861Y-117114712D01*
X178575271Y-117164847D01*
X178569041Y-117214598D01*
X178571406Y-117247491D01*
X178574005Y-117256951D01*
X178573275Y-117266734D01*
X178593871Y-117329258D01*
X178611307Y-117392719D01*
X178617327Y-117400463D01*
X178620397Y-117409782D01*
X178702312Y-117554669D01*
X178715058Y-117569470D01*
X178722995Y-117587321D01*
X178889498Y-117823160D01*
X178895550Y-117828908D01*
X178899262Y-117836383D01*
X179133409Y-118139745D01*
X179137751Y-118143531D01*
X179140466Y-118148617D01*
X179425312Y-118496073D01*
X179430054Y-118499969D01*
X179433113Y-118505291D01*
X181253350Y-120589106D01*
X181259293Y-120593685D01*
X181263278Y-120600042D01*
X183588042Y-123064423D01*
X183594375Y-123068927D01*
X183598763Y-123075347D01*
X186060868Y-125486235D01*
X186067131Y-125490325D01*
X186071584Y-125496335D01*
X188654821Y-127839660D01*
X188661091Y-127843421D01*
X188665659Y-127849129D01*
X191353817Y-130110820D01*
X191360177Y-130114320D01*
X191364920Y-130119816D01*
X194141795Y-132285801D01*
X194148335Y-132289091D01*
X194153321Y-132294450D01*
X197002701Y-134350658D01*
X197009518Y-134353774D01*
X197014829Y-134359062D01*
X199920507Y-136291422D01*
X199924069Y-136292888D01*
X199926849Y-136295550D01*
X200539102Y-136685627D01*
X200518421Y-136698853D01*
X200321369Y-136823365D01*
X199508093Y-137313391D01*
X198575837Y-137843813D01*
X197554363Y-138399239D01*
X196475330Y-138963255D01*
X195370077Y-139519672D01*
X194270213Y-140052204D01*
X193206992Y-140544782D01*
X192212961Y-140980813D01*
X189497089Y-142075372D01*
X186040230Y-143312499D01*
X182476460Y-144420316D01*
X178805849Y-145398865D01*
X175029342Y-146247886D01*
X171147793Y-146967143D01*
X167162098Y-147556388D01*
X163073214Y-148015373D01*
X158882037Y-148343854D01*
X154588934Y-148541619D01*
X151650272Y-148594970D01*
X147783462Y-148555556D01*
X143938323Y-148392982D01*
X140124344Y-148109075D01*
X136351942Y-147705684D01*
X132631447Y-147184662D01*
X128973222Y-146547877D01*
X125387658Y-145797214D01*
X121885061Y-144934554D01*
X118475866Y-143961826D01*
X115170403Y-142880948D01*
X111979048Y-141693878D01*
X108908151Y-140400906D01*
X108883362Y-140389798D01*
X108244343Y-140095010D01*
X107529264Y-139751344D01*
X106760180Y-139370471D01*
X105960247Y-138964601D01*
X105152686Y-138545989D01*
X104360928Y-138127022D01*
X103607975Y-137719871D01*
X102917371Y-137337019D01*
X102312599Y-136990952D01*
X101818551Y-136695090D01*
X101812099Y-136690916D01*
X102002792Y-136562671D01*
X102422787Y-136292379D01*
X102423145Y-136292033D01*
X102423608Y-136291849D01*
X103463105Y-135619143D01*
X103466782Y-135615573D01*
X103471497Y-135613556D01*
X106323279Y-133660512D01*
X106328368Y-133655305D01*
X106334953Y-133652195D01*
X107639449Y-132685750D01*
X169265000Y-132685750D01*
X169265000Y-133526310D01*
X169361673Y-133759699D01*
X169540302Y-133938327D01*
X169773691Y-134035000D01*
X170614250Y-134035000D01*
X170773000Y-133876250D01*
X170773000Y-132527000D01*
X171027000Y-132527000D01*
X171027000Y-133876250D01*
X171185750Y-134035000D01*
X172026309Y-134035000D01*
X172259698Y-133938327D01*
X172438327Y-133759699D01*
X172535000Y-133526310D01*
X172535000Y-132685750D01*
X172376250Y-132527000D01*
X171027000Y-132527000D01*
X170773000Y-132527000D01*
X169423750Y-132527000D01*
X169265000Y-132685750D01*
X107639449Y-132685750D01*
X109134700Y-131577983D01*
X109139497Y-131572696D01*
X109145835Y-131569415D01*
X109516035Y-131273690D01*
X169265000Y-131273690D01*
X169265000Y-132114250D01*
X169423750Y-132273000D01*
X170773000Y-132273000D01*
X170773000Y-130923750D01*
X171027000Y-130923750D01*
X171027000Y-132273000D01*
X172376250Y-132273000D01*
X172535000Y-132114250D01*
X172535000Y-131273690D01*
X172438327Y-131040301D01*
X172259698Y-130861673D01*
X172026309Y-130765000D01*
X171185750Y-130765000D01*
X171027000Y-130923750D01*
X170773000Y-130923750D01*
X170614250Y-130765000D01*
X169773691Y-130765000D01*
X169540302Y-130861673D01*
X169361673Y-131040301D01*
X169265000Y-131273690D01*
X109516035Y-131273690D01*
X111870521Y-129392869D01*
X111875134Y-129387396D01*
X111881367Y-129383876D01*
X112752997Y-128633885D01*
X129568796Y-128633885D01*
X129748213Y-129068109D01*
X130080144Y-129400619D01*
X130514054Y-129580794D01*
X130983885Y-129581204D01*
X131418109Y-129401787D01*
X131750619Y-129069856D01*
X131930794Y-128635946D01*
X131931204Y-128166115D01*
X131751787Y-127731891D01*
X131419856Y-127399381D01*
X130985946Y-127219206D01*
X130516115Y-127218796D01*
X130081891Y-127398213D01*
X129749381Y-127730144D01*
X129569206Y-128164054D01*
X129568796Y-128633885D01*
X112752997Y-128633885D01*
X114507964Y-127123831D01*
X114512491Y-127118045D01*
X114518746Y-127114196D01*
X115575289Y-126133885D01*
X132868796Y-126133885D01*
X133048213Y-126568109D01*
X133380144Y-126900619D01*
X133814054Y-127080794D01*
X134283885Y-127081204D01*
X134718109Y-126901787D01*
X135050619Y-126569856D01*
X135191941Y-126229513D01*
X138199674Y-126229513D01*
X138485436Y-126921109D01*
X139014108Y-127450704D01*
X139705204Y-127737673D01*
X140453513Y-127738326D01*
X141145109Y-127452564D01*
X141674704Y-126923892D01*
X141961673Y-126232796D01*
X141961751Y-126142750D01*
X148146000Y-126142750D01*
X148146000Y-129983310D01*
X148242673Y-130216699D01*
X148421302Y-130395327D01*
X148654691Y-130492000D01*
X152495250Y-130492000D01*
X152654000Y-130333250D01*
X152654000Y-125984000D01*
X152908000Y-125984000D01*
X152908000Y-130333250D01*
X153066750Y-130492000D01*
X156907309Y-130492000D01*
X157140698Y-130395327D01*
X157319327Y-130216699D01*
X157416000Y-129983310D01*
X157416000Y-126229513D01*
X163599674Y-126229513D01*
X163885436Y-126921109D01*
X164414108Y-127450704D01*
X165105204Y-127737673D01*
X165853513Y-127738326D01*
X166545109Y-127452564D01*
X167074704Y-126923892D01*
X167361673Y-126232796D01*
X167362326Y-125484487D01*
X167076564Y-124792891D01*
X166547892Y-124263296D01*
X165856796Y-123976327D01*
X165108487Y-123975674D01*
X164416891Y-124261436D01*
X163887296Y-124790108D01*
X163600327Y-125481204D01*
X163599674Y-126229513D01*
X157416000Y-126229513D01*
X157416000Y-126142750D01*
X157257250Y-125984000D01*
X152908000Y-125984000D01*
X152654000Y-125984000D01*
X148304750Y-125984000D01*
X148146000Y-126142750D01*
X141961751Y-126142750D01*
X141962326Y-125484487D01*
X141676564Y-124792891D01*
X141147892Y-124263296D01*
X140456796Y-123976327D01*
X139708487Y-123975674D01*
X139016891Y-124261436D01*
X138487296Y-124790108D01*
X138200327Y-125481204D01*
X138199674Y-126229513D01*
X135191941Y-126229513D01*
X135230794Y-126135946D01*
X135231204Y-125666115D01*
X135051787Y-125231891D01*
X134719856Y-124899381D01*
X134285946Y-124719206D01*
X133816115Y-124718796D01*
X133381891Y-124898213D01*
X133049381Y-125230144D01*
X132869206Y-125664054D01*
X132868796Y-126133885D01*
X115575289Y-126133885D01*
X117024229Y-124789490D01*
X117028750Y-124783242D01*
X117035158Y-124778943D01*
X118175776Y-123633885D01*
X129568796Y-123633885D01*
X129748213Y-124068109D01*
X130080144Y-124400619D01*
X130514054Y-124580794D01*
X130983885Y-124581204D01*
X131418109Y-124401787D01*
X131750619Y-124069856D01*
X131930794Y-123635946D01*
X131931204Y-123166115D01*
X131751787Y-122731891D01*
X131419856Y-122399381D01*
X130985946Y-122219206D01*
X130516115Y-122218796D01*
X130081891Y-122398213D01*
X129749381Y-122730144D01*
X129569206Y-123164054D01*
X129568796Y-123633885D01*
X118175776Y-123633885D01*
X119396499Y-122408412D01*
X119399256Y-122404268D01*
X119403315Y-122401393D01*
X119982673Y-121789520D01*
X119983605Y-121788040D01*
X119985023Y-121787016D01*
X120037413Y-121730690D01*
X148146000Y-121730690D01*
X148146000Y-125571250D01*
X148304750Y-125730000D01*
X152654000Y-125730000D01*
X152654000Y-121380750D01*
X152908000Y-121380750D01*
X152908000Y-125730000D01*
X157257250Y-125730000D01*
X157416000Y-125571250D01*
X157416000Y-121730690D01*
X157319327Y-121497301D01*
X157140698Y-121318673D01*
X156907309Y-121222000D01*
X153066750Y-121222000D01*
X152908000Y-121380750D01*
X152654000Y-121380750D01*
X152495250Y-121222000D01*
X148654691Y-121222000D01*
X148421302Y-121318673D01*
X148242673Y-121497301D01*
X148146000Y-121730690D01*
X120037413Y-121730690D01*
X120569694Y-121158425D01*
X120570574Y-121156998D01*
X120571926Y-121156005D01*
X121137607Y-120537328D01*
X121138476Y-120535893D01*
X121139824Y-120534884D01*
X121675678Y-119938672D01*
X121676595Y-119937128D01*
X121678023Y-119936039D01*
X122173213Y-119374842D01*
X122174254Y-119373052D01*
X122175886Y-119371780D01*
X122619575Y-118858148D01*
X122620865Y-118855875D01*
X122622905Y-118854241D01*
X123004253Y-118400720D01*
X123006039Y-118397472D01*
X123008887Y-118395102D01*
X123317057Y-118014246D01*
X123319939Y-118008762D01*
X123324572Y-118004652D01*
X123548726Y-117709009D01*
X123554702Y-117696713D01*
X123564272Y-117686944D01*
X123693574Y-117489062D01*
X123716214Y-117432776D01*
X123743134Y-117378402D01*
X123766744Y-117290833D01*
X123766903Y-117288459D01*
X123767932Y-117286316D01*
X123771939Y-117213413D01*
X123776827Y-117140561D01*
X123776066Y-117138309D01*
X123776197Y-117135934D01*
X123751997Y-117067040D01*
X123728637Y-116997869D01*
X123727072Y-116996079D01*
X123726284Y-116993836D01*
X123677571Y-116939456D01*
X123629510Y-116884481D01*
X123627380Y-116883426D01*
X123625792Y-116881654D01*
X123609245Y-116869232D01*
X123598695Y-116864167D01*
X123590379Y-116855932D01*
X123453317Y-116765319D01*
X123449965Y-116763950D01*
X123447347Y-116761451D01*
X123203240Y-116606457D01*
X123201831Y-116605911D01*
X123200729Y-116604876D01*
X122878080Y-116403476D01*
X122877081Y-116403098D01*
X122876300Y-116402372D01*
X122504960Y-116173370D01*
X121326702Y-115433300D01*
X119801140Y-114426291D01*
X118280693Y-113370661D01*
X116795820Y-112288711D01*
X115377395Y-111203085D01*
X114056342Y-110136539D01*
X112861324Y-109110012D01*
X112771366Y-109029329D01*
X112429985Y-108715827D01*
X112039734Y-108348553D01*
X111617393Y-107944151D01*
X111180475Y-107519971D01*
X110746535Y-107093437D01*
X110332663Y-106681523D01*
X109956503Y-106301769D01*
X109635573Y-105971617D01*
X109551490Y-105882500D01*
X109827360Y-105828914D01*
X109833245Y-105826507D01*
X109839598Y-105826330D01*
X110365752Y-105706316D01*
X110369176Y-105704784D01*
X110372922Y-105704608D01*
X110985632Y-105552486D01*
X110988124Y-105551314D01*
X110990872Y-105551146D01*
X111656289Y-105376004D01*
X111658447Y-105374952D01*
X111660841Y-105374776D01*
X112345117Y-105185704D01*
X112347299Y-105184607D01*
X112349732Y-105184398D01*
X113019017Y-104990484D01*
X113021575Y-104989157D01*
X113024441Y-104988869D01*
X113644886Y-104799201D01*
X113648377Y-104797325D01*
X113652310Y-104796849D01*
X114190068Y-104620519D01*
X114193609Y-104618523D01*
X114197635Y-104617951D01*
X114694070Y-104443710D01*
X114699924Y-104440249D01*
X114706621Y-104439059D01*
X116696970Y-103661964D01*
X116706371Y-103655957D01*
X116717224Y-103653383D01*
X118660124Y-102764150D01*
X118669199Y-102757595D01*
X118679925Y-102754393D01*
X120590053Y-101744313D01*
X120598512Y-101737433D01*
X120608773Y-101733737D01*
X122500811Y-100594102D01*
X122508447Y-100587150D01*
X122517963Y-100583144D01*
X124406587Y-99305246D01*
X124413281Y-99298474D01*
X124421868Y-99294356D01*
X126321759Y-97869486D01*
X126327483Y-97863102D01*
X126335045Y-97859060D01*
X128260881Y-96278509D01*
X128263721Y-96275049D01*
X128267621Y-96272848D01*
X128310836Y-96235700D01*
X128313207Y-96232673D01*
X128316520Y-96230717D01*
X128414206Y-96143361D01*
X141175975Y-96143361D01*
X141285950Y-96409521D01*
X141489408Y-96613335D01*
X141755376Y-96723774D01*
X142043361Y-96724025D01*
X142309521Y-96614050D01*
X142415757Y-96508000D01*
X147089580Y-96508000D01*
X160776105Y-110194526D01*
X160775975Y-110343361D01*
X160885950Y-110609521D01*
X161089408Y-110813335D01*
X161355376Y-110923774D01*
X161643361Y-110924025D01*
X161909521Y-110814050D01*
X162113335Y-110610592D01*
X162223774Y-110344624D01*
X162224025Y-110056639D01*
X162114050Y-109790479D01*
X161910592Y-109586665D01*
X161644624Y-109476226D01*
X161494516Y-109476095D01*
X147659210Y-95640790D01*
X147494403Y-95530669D01*
X147300000Y-95492000D01*
X142415743Y-95492000D01*
X142310592Y-95386665D01*
X142044624Y-95276226D01*
X141756639Y-95275975D01*
X141490479Y-95385950D01*
X141286665Y-95589408D01*
X141176226Y-95855376D01*
X141175975Y-96143361D01*
X128414206Y-96143361D01*
X128718231Y-95871488D01*
X128720761Y-95868124D01*
X128724339Y-95865907D01*
X129217180Y-95405797D01*
X129218714Y-95403663D01*
X129220930Y-95402249D01*
X129783993Y-94862308D01*
X129785085Y-94860746D01*
X129786680Y-94859706D01*
X130399054Y-94260982D01*
X130399931Y-94259701D01*
X130401223Y-94258844D01*
X131042000Y-93622384D01*
X131042782Y-93621222D01*
X131043946Y-93620438D01*
X131692214Y-92967290D01*
X131692985Y-92966127D01*
X131694140Y-92965337D01*
X132328993Y-92316549D01*
X132329833Y-92315262D01*
X132331094Y-92314385D01*
X132931624Y-91691007D01*
X132932634Y-91689433D01*
X132934158Y-91688351D01*
X133479451Y-91111428D01*
X133480805Y-91109273D01*
X133482861Y-91107773D01*
X133952011Y-90598355D01*
X133954089Y-90594951D01*
X133957259Y-90592538D01*
X134329356Y-90171673D01*
X134331167Y-90168566D01*
X134333987Y-90166337D01*
X134578487Y-89879372D01*
X134579044Y-89878374D01*
X134579937Y-89877660D01*
X134973366Y-89410428D01*
X134973920Y-89409422D01*
X134974810Y-89408702D01*
X135376999Y-88925377D01*
X135377485Y-88924482D01*
X135378274Y-88923837D01*
X135774501Y-88442626D01*
X135774978Y-88441737D01*
X135775756Y-88441094D01*
X136151297Y-87980208D01*
X136151825Y-87979213D01*
X136152691Y-87978488D01*
X136492825Y-87556131D01*
X136493499Y-87554841D01*
X136494610Y-87553898D01*
X136784612Y-87188281D01*
X136785646Y-87186267D01*
X136787357Y-87184780D01*
X137012506Y-86894108D01*
X137014602Y-86889906D01*
X137018070Y-86886744D01*
X137163644Y-86689225D01*
X137171789Y-86671869D01*
X137184622Y-86657621D01*
X137235896Y-86571463D01*
X137239497Y-86561299D01*
X137246257Y-86552907D01*
X137264520Y-86490665D01*
X137286190Y-86429499D01*
X137285627Y-86418733D01*
X137288662Y-86408391D01*
X137281715Y-86343891D01*
X137278328Y-86279095D01*
X137273688Y-86269364D01*
X137272534Y-86258648D01*
X137241433Y-86201715D01*
X137213508Y-86143149D01*
X137205498Y-86135935D01*
X137200330Y-86126474D01*
X137185333Y-86108536D01*
X137148827Y-86079129D01*
X137117127Y-86044604D01*
X136989345Y-85951108D01*
X136979618Y-85946584D01*
X136971939Y-85939090D01*
X136734820Y-85784795D01*
X136730739Y-85783163D01*
X136727526Y-85780164D01*
X136406732Y-85581497D01*
X136403903Y-85580438D01*
X136401665Y-85578413D01*
X136023900Y-85352422D01*
X134965774Y-84710192D01*
X133405325Y-83698335D01*
X131834297Y-82607578D01*
X130280929Y-81459608D01*
X128774250Y-80276713D01*
X127343317Y-79081297D01*
X126017267Y-77895958D01*
X124822092Y-76740459D01*
X124569278Y-76483457D01*
X124521145Y-76432626D01*
X125354049Y-76085844D01*
X125362874Y-76079924D01*
X125373166Y-76077269D01*
X126692224Y-75442022D01*
X126699567Y-75436495D01*
X126708349Y-75433785D01*
X127374857Y-75073361D01*
X132117975Y-75073361D01*
X132227950Y-75339521D01*
X132431408Y-75543335D01*
X132697376Y-75653774D01*
X132985361Y-75654025D01*
X133200818Y-75565000D01*
X142113000Y-75565000D01*
X142113000Y-92859583D01*
X142024226Y-93073376D01*
X142023975Y-93361361D01*
X142133950Y-93627521D01*
X142337408Y-93831335D01*
X142603376Y-93941774D01*
X142891361Y-93942025D01*
X143157521Y-93832050D01*
X143361335Y-93628592D01*
X143471774Y-93362624D01*
X143472025Y-93074639D01*
X143383000Y-92859182D01*
X143383000Y-86243361D01*
X155475975Y-86243361D01*
X155585950Y-86509521D01*
X155692000Y-86615757D01*
X155692000Y-102600000D01*
X155730669Y-102794403D01*
X155840790Y-102959210D01*
X156140790Y-103259210D01*
X177992000Y-125110421D01*
X177992000Y-131115658D01*
X177718749Y-131228563D01*
X177329928Y-131616705D01*
X177119241Y-132124097D01*
X177118761Y-132673493D01*
X177328563Y-133181251D01*
X177716705Y-133570072D01*
X178224097Y-133780759D01*
X178773493Y-133781239D01*
X179281251Y-133571437D01*
X179670072Y-133183295D01*
X179880759Y-132675903D01*
X179881239Y-132126507D01*
X179671437Y-131618749D01*
X179283295Y-131229928D01*
X179008000Y-131115616D01*
X179008000Y-124900000D01*
X178972038Y-124719206D01*
X178969331Y-124705596D01*
X178859210Y-124540789D01*
X156859210Y-102540790D01*
X156708000Y-102389580D01*
X156708000Y-86615743D01*
X156813335Y-86510592D01*
X156923774Y-86244624D01*
X156924025Y-85956639D01*
X156814050Y-85690479D01*
X156610592Y-85486665D01*
X156344624Y-85376226D01*
X156056639Y-85375975D01*
X155790479Y-85485950D01*
X155586665Y-85689408D01*
X155476226Y-85955376D01*
X155475975Y-86243361D01*
X143383000Y-86243361D01*
X143383000Y-80803750D01*
X147703000Y-80803750D01*
X147703000Y-81404310D01*
X147799673Y-81637699D01*
X147978302Y-81816327D01*
X148211691Y-81913000D01*
X148319591Y-81913000D01*
X148196810Y-81936103D01*
X148067135Y-82019546D01*
X147980141Y-82146866D01*
X147949536Y-82298000D01*
X147949536Y-83818000D01*
X147976103Y-83959190D01*
X148059546Y-84088865D01*
X148186866Y-84175859D01*
X148338000Y-84206464D01*
X149858000Y-84206464D01*
X149999190Y-84179897D01*
X150128865Y-84096454D01*
X150215859Y-83969134D01*
X150246464Y-83818000D01*
X150246464Y-82298000D01*
X150489536Y-82298000D01*
X150489536Y-83818000D01*
X150516103Y-83959190D01*
X150599546Y-84088865D01*
X150726866Y-84175859D01*
X150878000Y-84206464D01*
X152398000Y-84206464D01*
X152539190Y-84179897D01*
X152668865Y-84096454D01*
X152755859Y-83969134D01*
X152786464Y-83818000D01*
X152786464Y-82298000D01*
X153029536Y-82298000D01*
X153029536Y-83818000D01*
X153056103Y-83959190D01*
X153139546Y-84088865D01*
X153266866Y-84175859D01*
X153418000Y-84206464D01*
X154938000Y-84206464D01*
X155079190Y-84179897D01*
X155208865Y-84096454D01*
X155295859Y-83969134D01*
X155326464Y-83818000D01*
X155326464Y-82298000D01*
X155299897Y-82156810D01*
X155216454Y-82027135D01*
X155089134Y-81940141D01*
X154938000Y-81909536D01*
X153418000Y-81909536D01*
X153276810Y-81936103D01*
X153147135Y-82019546D01*
X153060141Y-82146866D01*
X153029536Y-82298000D01*
X152786464Y-82298000D01*
X152759897Y-82156810D01*
X152676454Y-82027135D01*
X152549134Y-81940141D01*
X152398000Y-81909536D01*
X150878000Y-81909536D01*
X150736810Y-81936103D01*
X150607135Y-82019546D01*
X150520141Y-82146866D01*
X150489536Y-82298000D01*
X150246464Y-82298000D01*
X150219897Y-82156810D01*
X150136454Y-82027135D01*
X150009134Y-81940141D01*
X149875106Y-81913000D01*
X149984309Y-81913000D01*
X150217698Y-81816327D01*
X150396327Y-81637699D01*
X150493000Y-81404310D01*
X150493000Y-81296409D01*
X150516103Y-81419190D01*
X150599546Y-81548865D01*
X150726866Y-81635859D01*
X150878000Y-81666464D01*
X152398000Y-81666464D01*
X152539190Y-81639897D01*
X152668865Y-81556454D01*
X152755859Y-81429134D01*
X152786464Y-81278000D01*
X152786464Y-79758000D01*
X152759897Y-79616810D01*
X152676454Y-79487135D01*
X152549134Y-79400141D01*
X152398000Y-79369536D01*
X150878000Y-79369536D01*
X150736810Y-79396103D01*
X150607135Y-79479546D01*
X150520141Y-79606866D01*
X150493000Y-79740894D01*
X150493000Y-79631690D01*
X150396327Y-79398301D01*
X150217698Y-79219673D01*
X149984309Y-79123000D01*
X149383750Y-79123000D01*
X149225000Y-79281750D01*
X149225000Y-80391000D01*
X149245000Y-80391000D01*
X149245000Y-80645000D01*
X149225000Y-80645000D01*
X149225000Y-80665000D01*
X148971000Y-80665000D01*
X148971000Y-80645000D01*
X147861750Y-80645000D01*
X147703000Y-80803750D01*
X143383000Y-80803750D01*
X143383000Y-79631690D01*
X147703000Y-79631690D01*
X147703000Y-80232250D01*
X147861750Y-80391000D01*
X148971000Y-80391000D01*
X148971000Y-79281750D01*
X148812250Y-79123000D01*
X148211691Y-79123000D01*
X147978302Y-79219673D01*
X147799673Y-79398301D01*
X147703000Y-79631690D01*
X143383000Y-79631690D01*
X143383000Y-75565000D01*
X152062580Y-75565000D01*
X153543000Y-77045420D01*
X153543000Y-79369536D01*
X153418000Y-79369536D01*
X153276810Y-79396103D01*
X153147135Y-79479546D01*
X153060141Y-79606866D01*
X153029536Y-79758000D01*
X153029536Y-81278000D01*
X153056103Y-81419190D01*
X153139546Y-81548865D01*
X153266866Y-81635859D01*
X153418000Y-81666464D01*
X154938000Y-81666464D01*
X155079190Y-81639897D01*
X155208865Y-81556454D01*
X155295859Y-81429134D01*
X155326464Y-81278000D01*
X155326464Y-79758000D01*
X155299897Y-79616810D01*
X155216454Y-79487135D01*
X155089134Y-79400141D01*
X154938000Y-79369536D01*
X154813000Y-79369536D01*
X154813000Y-78629361D01*
X158279975Y-78629361D01*
X158389950Y-78895521D01*
X158496000Y-79001757D01*
X158496000Y-103116257D01*
X158390665Y-103221408D01*
X158280226Y-103487376D01*
X158279975Y-103775361D01*
X158389950Y-104041521D01*
X158593408Y-104245335D01*
X158859376Y-104355774D01*
X159147361Y-104356025D01*
X159413521Y-104246050D01*
X159617335Y-104042592D01*
X159727774Y-103776624D01*
X159728025Y-103488639D01*
X159618050Y-103222479D01*
X159512000Y-103116243D01*
X159512000Y-79001743D01*
X159617335Y-78896592D01*
X159727774Y-78630624D01*
X159728025Y-78342639D01*
X159618050Y-78076479D01*
X159414592Y-77872665D01*
X159148624Y-77762226D01*
X158860639Y-77761975D01*
X158594479Y-77871950D01*
X158390665Y-78075408D01*
X158280226Y-78341376D01*
X158279975Y-78629361D01*
X154813000Y-78629361D01*
X154813000Y-76708000D01*
X154764664Y-76464996D01*
X154627013Y-76258987D01*
X152849013Y-74480987D01*
X152643004Y-74343336D01*
X152400000Y-74295000D01*
X133200417Y-74295000D01*
X132986624Y-74206226D01*
X132698639Y-74205975D01*
X132432479Y-74315950D01*
X132228665Y-74519408D01*
X132118226Y-74785376D01*
X132117975Y-75073361D01*
X127374857Y-75073361D01*
X128077813Y-74693228D01*
X128084080Y-74688034D01*
X128091752Y-74685312D01*
X129485313Y-73855162D01*
X129490982Y-73850052D01*
X129498075Y-73847220D01*
X130889431Y-72943193D01*
X130894845Y-72937916D01*
X130901750Y-72934846D01*
X132264596Y-71972659D01*
X132270022Y-71966946D01*
X132277090Y-71963457D01*
X133585121Y-70958825D01*
X133588786Y-70954643D01*
X133593701Y-70952040D01*
X134104866Y-70535890D01*
X134108752Y-70531193D01*
X134114049Y-70528174D01*
X135963560Y-68924367D01*
X135968928Y-68917452D01*
X135976332Y-68912782D01*
X137836860Y-67147824D01*
X137841448Y-67141335D01*
X137847990Y-67136828D01*
X139714676Y-65216433D01*
X139718630Y-65210329D01*
X139724465Y-65205982D01*
X141592451Y-63135867D01*
X141595891Y-63130099D01*
X141601138Y-63125903D01*
X143465566Y-60911783D01*
X143468584Y-60906305D01*
X143473341Y-60902245D01*
X145329353Y-58549836D01*
X145332020Y-58544607D01*
X145336369Y-58540665D01*
X147179108Y-56055683D01*
X147181482Y-56050664D01*
X147185488Y-56046820D01*
X147748240Y-55241265D01*
X149224670Y-55241265D01*
X149514078Y-55941686D01*
X150049495Y-56478039D01*
X150749410Y-56768668D01*
X151507265Y-56769330D01*
X152207686Y-56479922D01*
X152744039Y-55944505D01*
X153034668Y-55244590D01*
X153035330Y-54486735D01*
X152745922Y-53786314D01*
X152210505Y-53249961D01*
X151510590Y-52959332D01*
X150752735Y-52958670D01*
X150052314Y-53248078D01*
X149515961Y-53783495D01*
X149225332Y-54483410D01*
X149224670Y-55241265D01*
X147748240Y-55241265D01*
X149010094Y-53434980D01*
X149012220Y-53430135D01*
X149015937Y-53426371D01*
X150817553Y-50693389D01*
X150818114Y-50692011D01*
X150819152Y-50690944D01*
X150925651Y-50526696D01*
X151146961Y-50198841D01*
X151182407Y-50149817D01*
X151246592Y-50247673D01*
M02*
