M48
;DRILL file {KiCad 4.0.5} date 04/19/17 16:41:47
;FORMAT={-:-/ absolute / inch / decimal}
FMAT,2
INCH,TZ
T1C0.013
T2C0.035
T3C0.039
T4C0.040
T5C0.075
T6C0.120
%
G90
G05
M72
T1
X5.23Y-2.95
X5.5866Y-3.7795
X5.62Y-3.67
X6.055Y-5.555
X6.1496Y-3.3898
X6.26Y-3.09
X6.26Y-4.08
X6.3583Y-4.3386
T2
X5.1476Y-4.8583
X5.1476Y-5.0551
X5.2776Y-4.9567
T3
X6.7283Y-5.2126
X7.0276Y-5.2126
T4
X5.87Y-3.17
X5.87Y-3.27
X5.97Y-3.17
X5.97Y-3.27
X6.07Y-3.17
X6.07Y-3.27
T5
X5.515Y-4.955
X6.515Y-4.955
T6
X5.95Y-2.16
T0
M30
