G04 #@! TF.FileFunction,Legend,Bot*
%FSLAX46Y46*%
G04 Gerber Fmt 4.6, Leading zero omitted, Abs format (unit mm)*
G04 Created by KiCad (PCBNEW 4.0.5) date 04/19/17 16:41:43*
%MOMM*%
%LPD*%
G01*
G04 APERTURE LIST*
%ADD10C,0.100000*%
%ADD11C,0.150000*%
%ADD12C,0.120000*%
G04 APERTURE END LIST*
D10*
D11*
X143340556Y-135495071D02*
G75*
G02X162331000Y-135587000I9440444J-11361929D01*
G01*
X143302751Y-135528751D02*
G75*
G02X142631000Y-135807000I-671751J671751D01*
G01*
X162259249Y-135528751D02*
G75*
G03X162931000Y-135807000I671751J671751D01*
G01*
X165631000Y-133107000D02*
G75*
G02X162931000Y-135807000I-2700000J0D01*
G01*
X139931000Y-133107000D02*
G75*
G03X142631000Y-135807000I2700000J0D01*
G01*
X139931000Y-127757000D02*
X139931000Y-133157000D01*
X165631000Y-127757000D02*
X165631000Y-133157000D01*
X139931000Y-119457000D02*
X139931000Y-123957000D01*
X165631000Y-119457000D02*
X165631000Y-123957000D01*
X148831000Y-113607000D02*
X139931000Y-119457000D01*
X148831000Y-112807000D02*
X148831000Y-113607000D01*
X156731000Y-112807000D02*
X148831000Y-112807000D01*
X156731000Y-112807000D02*
X156731000Y-113607000D01*
X156731000Y-113607000D02*
X165631000Y-119457000D01*
X131950000Y-127550000D02*
X131950000Y-128900000D01*
X131950000Y-128900000D02*
X132850000Y-128900000D01*
X132850000Y-128900000D02*
X132850000Y-127550000D01*
X131950000Y-127550000D02*
X132850000Y-127550000D01*
X134050000Y-127000000D02*
X134050000Y-130150000D01*
X134050000Y-121650000D02*
X134050000Y-124800000D01*
X130750000Y-129500000D02*
X130750000Y-130150000D01*
X130750000Y-124500000D02*
X130750000Y-127300000D01*
X130750000Y-121650000D02*
X130750000Y-122300000D01*
X130750000Y-130150000D02*
X134050000Y-130150000D01*
X130750000Y-121650000D02*
X134050000Y-121650000D01*
D12*
X155268000Y-84408000D02*
X155268000Y-79168000D01*
X155268000Y-79168000D02*
X148008000Y-79168000D01*
X148008000Y-79168000D02*
X148008000Y-84408000D01*
X148008000Y-84408000D02*
X155268000Y-84408000D01*
D11*
X153439714Y-113720571D02*
X153296857Y-113768190D01*
X153249238Y-113815810D01*
X153201619Y-113911048D01*
X153201619Y-114053905D01*
X153249238Y-114149143D01*
X153296857Y-114196762D01*
X153392095Y-114244381D01*
X153773048Y-114244381D01*
X153773048Y-113244381D01*
X153439714Y-113244381D01*
X153344476Y-113292000D01*
X153296857Y-113339619D01*
X153249238Y-113434857D01*
X153249238Y-113530095D01*
X153296857Y-113625333D01*
X153344476Y-113672952D01*
X153439714Y-113720571D01*
X153773048Y-113720571D01*
X152915905Y-113244381D02*
X152344476Y-113244381D01*
X152630191Y-114244381D02*
X152630191Y-113244381D01*
X151487333Y-114244381D02*
X152058762Y-114244381D01*
X151773048Y-114244381D02*
X151773048Y-113244381D01*
X151868286Y-113387238D01*
X151963524Y-113482476D01*
X152058762Y-113530095D01*
X129690762Y-124650667D02*
X129738381Y-124793524D01*
X129738381Y-125031620D01*
X129690762Y-125126858D01*
X129643143Y-125174477D01*
X129547905Y-125222096D01*
X129452667Y-125222096D01*
X129357429Y-125174477D01*
X129309810Y-125126858D01*
X129262190Y-125031620D01*
X129214571Y-124841143D01*
X129166952Y-124745905D01*
X129119333Y-124698286D01*
X129024095Y-124650667D01*
X128928857Y-124650667D01*
X128833619Y-124698286D01*
X128786000Y-124745905D01*
X128738381Y-124841143D01*
X128738381Y-125079239D01*
X128786000Y-125222096D01*
X128738381Y-125555429D02*
X129738381Y-125793524D01*
X129024095Y-125984001D01*
X129738381Y-126174477D01*
X128738381Y-126412572D01*
X128833619Y-126745905D02*
X128786000Y-126793524D01*
X128738381Y-126888762D01*
X128738381Y-127126858D01*
X128786000Y-127222096D01*
X128833619Y-127269715D01*
X128928857Y-127317334D01*
X129024095Y-127317334D01*
X129166952Y-127269715D01*
X129738381Y-126698286D01*
X129738381Y-127317334D01*
D12*
X152269714Y-78774857D02*
X152269714Y-77574857D01*
X151812571Y-77574857D01*
X151698285Y-77632000D01*
X151641142Y-77689143D01*
X151583999Y-77803429D01*
X151583999Y-77974857D01*
X151641142Y-78089143D01*
X151698285Y-78146286D01*
X151812571Y-78203429D01*
X152269714Y-78203429D01*
X150441142Y-78774857D02*
X151126857Y-78774857D01*
X150783999Y-78774857D02*
X150783999Y-77574857D01*
X150898285Y-77746286D01*
X151012571Y-77860571D01*
X151126857Y-77917714D01*
D11*
X160310286Y-83602286D02*
X160382857Y-83674857D01*
X160600571Y-83747429D01*
X160745714Y-83747429D01*
X160963429Y-83674857D01*
X161108571Y-83529714D01*
X161181143Y-83384571D01*
X161253714Y-83094286D01*
X161253714Y-82876571D01*
X161181143Y-82586286D01*
X161108571Y-82441143D01*
X160963429Y-82296000D01*
X160745714Y-82223429D01*
X160600571Y-82223429D01*
X160382857Y-82296000D01*
X160310286Y-82368571D01*
X159366857Y-82223429D02*
X159076571Y-82223429D01*
X158931429Y-82296000D01*
X158786286Y-82441143D01*
X158713714Y-82731429D01*
X158713714Y-83239429D01*
X158786286Y-83529714D01*
X158931429Y-83674857D01*
X159076571Y-83747429D01*
X159366857Y-83747429D01*
X159512000Y-83674857D01*
X159657143Y-83529714D01*
X159729714Y-83239429D01*
X159729714Y-82731429D01*
X159657143Y-82441143D01*
X159512000Y-82296000D01*
X159366857Y-82223429D01*
X158060572Y-83747429D02*
X158060572Y-82223429D01*
X157189715Y-83747429D01*
X157189715Y-82223429D01*
X156464001Y-83747429D02*
X156464001Y-82223429D01*
X155593144Y-83747429D01*
X155593144Y-82223429D01*
X155230287Y-83892571D02*
X154069144Y-83892571D01*
X153416001Y-82223429D02*
X153270858Y-82223429D01*
X153125715Y-82296000D01*
X153053144Y-82368571D01*
X152980573Y-82513714D01*
X152908001Y-82804000D01*
X152908001Y-83166857D01*
X152980573Y-83457143D01*
X153053144Y-83602286D01*
X153125715Y-83674857D01*
X153270858Y-83747429D01*
X153416001Y-83747429D01*
X153561144Y-83674857D01*
X153633715Y-83602286D01*
X153706287Y-83457143D01*
X153778858Y-83166857D01*
X153778858Y-82804000D01*
X153706287Y-82513714D01*
X153633715Y-82368571D01*
X153561144Y-82296000D01*
X153416001Y-82223429D01*
X151456572Y-83747429D02*
X152327429Y-83747429D01*
X151892001Y-83747429D02*
X151892001Y-82223429D01*
X152037144Y-82441143D01*
X152182286Y-82586286D01*
X152327429Y-82658857D01*
X150948572Y-82223429D02*
X149932572Y-83747429D01*
X149932572Y-82223429D02*
X150948572Y-83747429D01*
X149061714Y-82223429D02*
X148916571Y-82223429D01*
X148771428Y-82296000D01*
X148698857Y-82368571D01*
X148626286Y-82513714D01*
X148553714Y-82804000D01*
X148553714Y-83166857D01*
X148626286Y-83457143D01*
X148698857Y-83602286D01*
X148771428Y-83674857D01*
X148916571Y-83747429D01*
X149061714Y-83747429D01*
X149206857Y-83674857D01*
X149279428Y-83602286D01*
X149352000Y-83457143D01*
X149424571Y-83166857D01*
X149424571Y-82804000D01*
X149352000Y-82513714D01*
X149279428Y-82368571D01*
X149206857Y-82296000D01*
X149061714Y-82223429D01*
X147247428Y-82223429D02*
X147537714Y-82223429D01*
X147682857Y-82296000D01*
X147755428Y-82368571D01*
X147900571Y-82586286D01*
X147973142Y-82876571D01*
X147973142Y-83457143D01*
X147900571Y-83602286D01*
X147827999Y-83674857D01*
X147682857Y-83747429D01*
X147392571Y-83747429D01*
X147247428Y-83674857D01*
X147174857Y-83602286D01*
X147102285Y-83457143D01*
X147102285Y-83094286D01*
X147174857Y-82949143D01*
X147247428Y-82876571D01*
X147392571Y-82804000D01*
X147682857Y-82804000D01*
X147827999Y-82876571D01*
X147900571Y-82949143D01*
X147973142Y-83094286D01*
M02*
